<svg width="20" height="21" viewBox="0 0 20 21" fill="none" xmlns="http://www.w3.org/2000/svg">
<path d="M7.15026 6.44002C7.15026 3.67273 4.55403 1.90166 4.44334 1.83122C4.27693 1.71874 4.08067 1.65863 3.87982 1.65863C3.67896 1.65863 3.4827 1.71874 3.31629 1.83122C3.2056 1.91172 0.609375 3.67273 0.609375 6.44002C0.609375 7.3074 0.953938 8.13925 1.56726 8.75257C2.18059 9.3659 3.01244 9.71047 3.87982 9.71047C4.74719 9.71047 5.57904 9.3659 6.19237 8.75257C6.80569 8.13925 7.15026 7.3074 7.15026 6.44002ZM3.87982 7.69789C3.54621 7.69789 3.22627 7.56536 2.99037 7.32947C2.75448 7.09357 2.62195 6.77363 2.62195 6.44002C2.70476 5.48594 3.15594 4.60163 3.87982 3.97462C4.60801 4.59824 5.06015 5.48443 5.13768 6.44002C5.13768 6.77363 5.00515 7.09357 4.76926 7.32947C4.53336 7.56536 4.21342 7.69789 3.87982 7.69789ZM9.97793 8.87525C9.81152 8.76277 9.61526 8.70266 9.41441 8.70266C9.21355 8.70266 9.01729 8.76277 8.85088 8.87525C8.67982 8.996 4.63453 11.7935 4.63453 15.9998C4.63453 17.2675 5.13812 18.4833 6.03453 19.3797C6.93093 20.2761 8.14671 20.7796 9.41441 20.7796C10.6821 20.7796 11.8979 20.2761 12.7943 19.3797C13.6907 18.4833 14.1943 17.2675 14.1943 15.9998C14.1943 11.723 10.1691 8.98594 9.97793 8.87525ZM9.41441 18.7671C9.051 18.7671 8.69115 18.6955 8.35541 18.5564C8.01966 18.4174 7.7146 18.2135 7.45763 17.9565C7.20067 17.6996 6.99683 17.3945 6.85776 17.0588C6.71869 16.723 6.64711 16.3632 6.64711 15.9998C6.64711 13.6752 8.4685 11.8035 9.42447 10.9683C10.3704 11.7633 12.1817 13.6149 12.1817 15.9998C12.1817 16.3632 12.1101 16.723 11.9711 17.0588C11.832 17.3945 11.6281 17.6996 11.3712 17.9565C11.1142 18.2135 10.8091 18.4174 10.4734 18.5564C10.1377 18.6955 9.77781 18.7671 9.41441 18.7671ZM16.2672 0.82493C16.1008 0.712451 15.9046 0.652344 15.7037 0.652344C15.5029 0.652344 15.3066 0.712451 15.1402 0.82493C14.9993 0.925559 11.6786 3.2199 11.6786 6.6916C11.6786 7.75913 12.1026 8.78295 12.8575 9.53781C13.6124 10.2927 14.6362 10.7168 15.7037 10.7168C16.7713 10.7168 17.7951 10.2927 18.5499 9.53781C19.3048 8.78295 19.7289 7.75913 19.7289 6.6916C19.7289 3.17965 16.4081 0.915496 16.2672 0.82493ZM15.7037 8.70418C15.1699 8.70418 14.658 8.49214 14.2806 8.1147C13.9032 7.73727 13.6911 7.22537 13.6911 6.6916C13.7601 5.96497 13.9737 5.25948 14.3193 4.61661C14.6649 3.97374 15.1356 3.40648 15.7037 2.9482C16.2739 3.40453 16.7461 3.97131 17.0919 4.61456C17.4378 5.25781 17.6501 5.96428 17.7163 6.6916C17.7163 7.22537 17.5043 7.73727 17.1268 8.1147C16.7494 8.49214 16.2375 8.70418 15.7037 8.70418Z" fill="white"/>
</svg>
