<svg width="21" height="22" viewBox="0 0 21 22" fill="none" xmlns="http://www.w3.org/2000/svg">
<path d="M1.39645 8.79267C1.11622 8.79267 0.847467 8.68135 0.649316 8.4832C0.451164 8.28505 0.339844 8.0163 0.339844 7.73607C0.339844 7.45584 0.451164 7.18709 0.649316 6.98894C0.847467 6.79079 1.11622 6.67947 1.39645 6.67947H9.84928C10.4097 6.67947 10.9472 6.45683 11.3435 6.06052C11.7398 5.66422 11.9625 5.12672 11.9625 4.56626C11.9625 4.0058 11.7398 3.4683 11.3435 3.072C10.9472 2.67569 10.4097 2.45305 9.84928 2.45305C9.26815 2.45305 8.73984 2.6855 8.35947 3.07645C8.26331 3.17907 8.14712 3.26087 8.01808 3.31679C7.88905 3.37271 7.74991 3.40156 7.60928 3.40156C7.46865 3.40156 7.32951 3.37271 7.20047 3.31679C7.07144 3.26087 6.95525 3.17907 6.85909 3.07645C6.44701 2.66437 6.44701 1.98815 6.85909 1.57607C7.63041 0.815316 8.68701 0.339844 9.84928 0.339844C10.9702 0.339844 12.0452 0.785126 12.8378 1.57773C13.6304 2.37034 14.0757 3.44534 14.0757 4.56626C14.0757 5.68717 13.6304 6.76218 12.8378 7.55479C12.0452 8.34739 10.9702 8.79267 9.84928 8.79267H1.39645ZM17.2455 10.9059C17.5257 10.9059 17.7945 10.7946 17.9926 10.5964C18.1908 10.3983 18.3021 10.1295 18.3021 9.84928C18.3021 9.56905 18.1908 9.3003 17.9926 9.10215C17.7945 8.90399 17.5257 8.79267 17.2455 8.79267C16.9497 8.79267 16.6855 8.9089 16.4953 9.09909C16.3976 9.19704 16.2815 9.27475 16.1536 9.32777C16.0258 9.38079 15.8888 9.40809 15.7504 9.40809C15.612 9.40809 15.475 9.38079 15.3472 9.32777C15.2194 9.27475 15.1033 9.19704 15.0055 9.09909C14.604 8.68701 14.604 8.02135 15.0055 7.60928C15.5761 7.03871 16.3685 6.67947 17.2455 6.67947C18.0862 6.67947 18.8924 7.01343 19.4869 7.60788C20.0814 8.20234 20.4153 9.00859 20.4153 9.84928C20.4153 10.69 20.0814 11.4962 19.4869 12.0907C18.8924 12.6851 18.0862 13.0191 17.2455 13.0191H2.45305C2.17282 13.0191 1.90407 12.9078 1.70592 12.7096C1.50777 12.5115 1.39645 12.2427 1.39645 11.9625C1.39645 11.6823 1.50777 11.4135 1.70592 11.2154C1.90407 11.0172 2.17282 10.9059 2.45305 10.9059H17.2455ZM16.1889 17.2455H1.39645C1.11622 17.2455 0.847467 17.1342 0.649316 16.936C0.451164 16.7379 0.339844 16.4691 0.339844 16.1889C0.339844 15.9087 0.451164 15.6399 0.649316 15.4418C0.847467 15.2436 1.11622 15.1323 1.39645 15.1323H16.1889C17.0296 15.1323 17.8358 15.4663 18.4303 16.0607C19.0248 16.6552 19.3587 17.4614 19.3587 18.3021C19.3587 19.1428 19.0248 19.949 18.4303 20.5435C17.8358 21.138 17.0296 21.4719 16.1889 21.4719C15.3119 21.4719 14.5195 21.1127 13.9489 20.5421C13.5474 20.13 13.5474 19.4644 13.9489 19.0523C14.0467 18.9543 14.1628 18.8766 14.2906 18.8236C14.4184 18.7706 14.5554 18.7433 14.6938 18.7433C14.8322 18.7433 14.9692 18.7706 15.097 18.8236C15.2249 18.8766 15.341 18.9543 15.4387 19.0523C15.6289 19.2425 15.8931 19.3587 16.1889 19.3587C16.4691 19.3587 16.7379 19.2474 16.936 19.0492C17.1342 18.8511 17.2455 18.5823 17.2455 18.3021C17.2455 18.0219 17.1342 17.7531 16.936 17.555C16.7379 17.3568 16.4691 17.2455 16.1889 17.2455Z" fill="white"/>
</svg>
